<?xml version="1.0" encoding="UTF-8" standalone="no"?>
<!-- Generator: Adobe Illustrator 19.2.1, SVG Export Plug-In . SVG Version: 6.00 Build 0)  -->

<svg
   version="1.1"
   id="Layer_1"
   x="0px"
   y="0px"
   viewBox="0 0 1200 800"
   style="enable-background:new 0 0 1200 800;"
   xml:space="preserve"
   sodipodi:docname="surroundings2.svg"
   inkscape:version="1.1.2 (b8e25be833, 2022-02-05)"
   xmlns:inkscape="http://www.inkscape.org/namespaces/inkscape"
   xmlns:sodipodi="http://sodipodi.sourceforge.net/DTD/sodipodi-0.dtd"
   xmlns="http://www.w3.org/2000/svg"
   xmlns:svg="http://www.w3.org/2000/svg"><defs
   id="defs77" /><sodipodi:namedview
   id="namedview75"
   pagecolor="#ffffff"
   bordercolor="#666666"
   borderopacity="1.0"
   inkscape:pageshadow="2"
   inkscape:pageopacity="0.0"
   inkscape:pagecheckerboard="0"
   showgrid="false"
   inkscape:snap-nodes="true"
   inkscape:zoom="0.88166667"
   inkscape:cx="599.43289"
   inkscape:cy="457.08885"
   inkscape:window-width="2560"
   inkscape:window-height="1017"
   inkscape:window-x="-8"
   inkscape:window-y="-8"
   inkscape:window-maximized="1"
   inkscape:current-layer="Layer_1" />
<style
   type="text/css"
   id="style2">
	.st0{fill:#DCDBDB;}
	.st1{fill:none;stroke:#FFFFFF;stroke-width:20;}
	.st2{fill:#BCBCBC;}
	.st3{fill:#A5D5A1;}
	.st4{fill:#9BD9E3;}
	.st5{fill:#636363;}
</style>
<path
   class="st0"
   d="M 1200,71.43138 H 0 V -3.1 h 1200 z"
   id="path4"
   style="stroke-width:0.788424" />
<path
   class="st1"
   d="M 1201.1342,30.813043 H 30.623819"
   id="path6" />

<path
   class="st2"
   d="M1200,585.2h-127V196.7h127V585.2z"
   id="path10" />
<path
   class="st2"
   d="M896.7,736.6H781.3v-36.2h115.4V736.6z"
   id="path12" />

<path
   class="st2"
   d="m 246.23667,187.36295 h -86.9 V 92.962949 h 86.9 z"
   id="path16" />
<path
   class="st0"
   d="M 88.534026,801.1 H 0 V 71.43138 h 88.534026 z"
   id="path18"
   style="stroke-width:0.850655" />
<path
   class="st1"
   d="M 41.381474,796.9 V 41.349905"
   id="path20" />
<path
   class="st2"
   d="m 246.23667,458.16295 h -43.4 v -250.8 h 43.4 z"
   id="path22" />
<path
   class="st2"
   d="m 182.53667,458.06295 h -68.8 v -250.6 h 68.8 v 250.6 z"
   id="path24" />
<path
   class="st2"
   d="m 144.03667,149.06295 h -30.3 V 91.562949 h 30.3 z"
   id="path26" />
<path
   class="st2"
   d="M770.7,736.6H655.3v-36.2h115.4V736.6z"
   id="path28" />
<path
   class="st2"
   d="M896.7,783.1H781.3v-36.2h115.4V783.1z"
   id="path30" />
<path
   class="st2"
   d="M770.7,783.1H655.3v-36.2h115.4V783.1z"
   id="path32" />


<ellipse
   class="st3"
   cx="1148.9264"
   cy="152.83026"
   id="circle38"
   rx="22.060492"
   ry="20.359169"
   style="stroke-width:0.706425" />
<ellipse
   class="st3"
   cx="1089.9697"
   cy="153.96446"
   id="circle40"
   rx="26.030245"
   ry="27.164461"
   style="stroke-width:0.886377" /><circle
   class="st3"
   cx="942.53308"
   cy="753.11908"
   r="30"
   id="circle40-9"
   style="fill:#a5d5a1" /><ellipse
   class="st3"
   cx="1137.051"
   cy="627.22113"
   id="circle40-4"
   style="fill:#a5d5a1;stroke-width:0.744742"
   rx="22.6276"
   ry="22.060492" />
<ellipse
   class="st3"
   cx="1118.8833"
   cy="105.76031"
   id="circle42"
   rx="21.493383"
   ry="20.926275"
   style="stroke-width:0.706931" />
<path
   class="st2"
   d="M637.5,783.1H340.3v-80.8h297.2V783.1z"
   id="path44" />
<circle
   class="st3"
   cx="134.33403"
   cy="707.26562"
   r="27.1"
   id="circle46" />

<circle
   class="st3"
   cx="190.24178"
   cy="761.29547"
   r="22.700001"
   id="circle50" /><circle
   class="st3"
   cx="222.30624"
   cy="685.06616"
   r="22.700001"
   id="circle50-9"
   style="fill:#a5d5a1" />
<circle
   class="st3"
   cx="972.55804"
   cy="108.02874"
   id="circle52"
   r="30" /><ellipse
   class="st3"
   cx="917.58026"
   cy="93.005661"
   id="circle52-5"
   style="fill:#a5d5a1;stroke-width:0.640553"
   rx="19.792061"
   ry="18.657845" />
<g
   id="g72"
   transform="matrix(0.90497297,0,0,0.99416856,-18.930059,-54.574718)">
	<path
   class="st5"
   d="m 251.2,194.2 v -14.8 c 0,-2 -1.6,-3.6 -3.6,-3.6 h -4.4 v -2 h 4 v -2 h -12 v 2 h 4 v 2 h -4.4 c -2,0 -3.6,1.6 -3.6,3.6 v 14.8 c 0,2 1.6,3.6 3.6,3.6 h 0.4 l -1.4,2 h -2.6 v 2 h 1.4 l -1.4,2 h 4 l 1.2,-2 h 9.8 l 1.2,2 h 4 l -1.4,-2 h 1.2 v -2 h -2.6 l -1.4,-2 h 0.4 c 2,0 3.6,-1.6 3.6,-3.6 z m -18,-14.6 c 0,-1 0.8,-1.8 1.8,-1.8 h 12.2 c 1.2,0 2,0.8 2,1.8 v 4.2 c 0,1.2 -0.8,2 -1.8,2 H 235 c -1,0 -1.8,-0.8 -1.8,-1.8 0,0 0,-4.4 0,-4.4 z m 0,14.2 c 0,-1.2 0.8,-2 2,-2 1.2,0 2,0.8 2,2 0,1.2 -0.8,2 -2,2 -1.2,0 -2,-0.8 -2,-2 z m 11.8,6 h -7.6 l 1.2,-2 h 5.2 z m 0.2,-6 c 0,-1.2 0.8,-2 2,-2 1.2,0 2,0.8 2,2 0,1.2 -0.8,2 -2,2 -1.2,0 -2,-0.8 -2,-2 z"
   id="path54" />
	<path
   class="st5"
   d="m 499.3,741 c -0.4,0 -0.8,0.1 -1.3,0.1 l -3.3,-7.3 c -0.2,-0.4 -0.6,-0.6 -1,-0.6 h -2.1 c -0.6,0 -1.1,0.5 -1.1,1.1 0,0.6 0.5,1.1 1.1,1.1 h 1.4 l 0.9,2 h -9.2 l -0.6,-1.4 h 0.5 c 0.6,0 1.1,-0.5 1.1,-1.1 0,-0.6 -0.5,-1.1 -1.1,-1.1 h -4 c -0.6,0 -1.1,0.5 -1.1,1.1 0,0.6 0.5,1.1 1.1,1.1 h 1.1 l 1.1,2.3 -2.1,3.1 c -0.7,-0.3 -1.4,-0.4 -2.2,-0.4 -3.1,0 -5.6,2.5 -5.6,5.6 0,3.1 2.5,5.6 5.6,5.6 2.7,0 5,-1.9 5.5,-4.5 h 0.9 c 0.5,1.3 1.9,2.1 3.4,1.8 1.6,-0.3 2.6,-1.9 2.3,-3.5 0,-0.2 -0.1,-0.4 -0.2,-0.6 l 4.9,-5 0.8,1.7 c -1.4,1 -2.3,2.7 -2.3,4.5 0,3.1 2.5,5.6 5.6,5.6 3.1,0 5.6,-2.5 5.6,-5.6 -0.1,-3.1 -2.6,-5.6 -5.7,-5.6 z m -13.8,3.5 c -0.3,0.3 -0.5,0.6 -0.6,1 H 484 c -0.2,-1.1 -0.7,-2.1 -1.5,-2.8 l 1.3,-2 z m -4.3,0.1 c 0.2,0.3 0.4,0.6 0.5,0.9 h -1.1 z m -2.7,5.4 c -1.9,0 -3.4,-1.5 -3.4,-3.4 0,-1.9 1.5,-3.4 3.4,-3.4 0.3,0 0.6,0.1 0.9,0.1 l -1.8,2.6 c -0.2,0.3 -0.3,0.8 -0.1,1.1 0.2,0.4 0.6,0.6 1,0.6 h 3.2 c -0.5,1.4 -1.7,2.4 -3.2,2.4 z m 10.3,-6.1 c -0.4,-0.2 -0.8,-0.2 -1.3,-0.2 l -1.8,-4 h 7.3 c 0,-0.1 -4.2,4.2 -4.2,4.2 z m 10.5,6.1 c -1.9,0 -3.4,-1.5 -3.4,-3.4 0,-1 0.4,-1.8 1.1,-2.5 l 1.3,2.9 c 0.2,0.4 0.6,0.6 1,0.6 0.2,0 0.3,0 0.4,-0.1 0.6,-0.2 0.8,-0.9 0.5,-1.4 l -1.3,-2.9 c 0.1,0 0.2,0 0.3,0 1.9,0 3.4,1.5 3.4,3.4 0.1,1.9 -1.4,3.4 -3.3,3.4 z"
   id="path56" />
	<g
   id="g68">
		<path
   class="st5"
   d="m 175.8,373.3 c 0.2,0 0.3,0 0.6,0 1,0 1.8,-0.2 2.4,-0.8 0.4,-0.4 0.7,-1 0.7,-1.7 0,-0.7 -0.3,-1.3 -0.8,-1.7 -0.5,-0.4 -1.2,-0.6 -2.2,-0.6 -1,0 -1.7,0.1 -2.2,0.2 v 7.2 h 1.6 z m 0,-3.4 c 0.1,0 0.3,-0.1 0.7,-0.1 0.8,0 1.3,0.4 1.3,1.1 0,0.7 -0.5,1.2 -1.4,1.2 -0.2,0 -0.4,0 -0.6,0 z"
   id="path58" />
		<path
   class="st5"
   d="m 172.7,378.2 h 8.1 c 1,0 1.9,-0.8 1.9,-1.9 v -8.1 c 0,-1 -0.8,-1.9 -1.9,-1.9 h -8.1 c -1,0 -1.9,0.8 -1.9,1.9 v 8.1 c 0.1,1.1 0.9,1.9 1.9,1.9 z m -0.4,-9.9 c 0,-0.3 0.2,-0.5 0.5,-0.5 h 7.9 c 0.3,0 0.5,0.2 0.5,0.5 v 7.9 c 0,0.3 -0.2,0.5 -0.5,0.5 h -7.9 c -0.3,0 -0.5,-0.2 -0.5,-0.5 0,0 0,-7.9 0,-7.9 z"
   id="path60" />
		<path
   class="st5"
   d="m 178.4,388 c -1.8,0 -3.3,1.5 -3.3,3.3 0,1.8 1.5,3.3 3.3,3.3 1.8,0 3.3,-1.5 3.3,-3.3 0,-1.9 -1.5,-3.3 -3.3,-3.3 z m 0,4.2 c -0.5,0 -1,-0.4 -1,-1 0,-0.5 0.4,-1 1,-1 0.5,0 1,0.4 1,1 0,0.6 -0.4,1 -1,1 z"
   id="path62" />
		<path
   class="st5"
   d="m 202.2,388.5 -0.5,-4.3 c -0.1,-0.8 -0.8,-1.4 -1.7,-1.4 l -1.2,0.1 -3.6,-3.3 c -0.3,-0.3 -0.8,-0.5 -1.3,-0.5 h -7.4 c -1.7,0 -3.3,0.6 -4.5,1.6 l -4.1,3.3 -5.5,1.4 c -0.7,0.2 -1.2,0.8 -1.2,1.5 v 1.6 c -0.2,0 -0.4,0.2 -0.4,0.4 v 2.1 c 0,0.3 0.2,0.5 0.5,0.5 h 3.1 c 0,-0.1 0,-0.3 0,-0.4 0,-2.3 1.8,-4.1 4.1,-4.1 2.3,0 4.1,1.8 4.1,4.1 0,0.1 0,0.3 0,0.4 h 8.6 c 0,-0.1 0,-0.3 0,-0.4 0,-2.3 1.8,-4.1 4.1,-4.1 2.3,0 4.1,1.8 4.1,4.1 0,0.1 0,0.3 0,0.4 h 2.9 c 0.3,0 0.5,-0.2 0.5,-0.5 v -2 c -0.1,-0.2 -0.3,-0.5 -0.6,-0.5 z m -11,-5.3 -10.3,0.5 2,-1.6 c 1.1,-0.9 2.4,-1.3 3.8,-1.3 h 4.5 c 0,0 0,2.4 0,2.4 z m 1.7,-0.1 v -2.3 h 0.7 c 0.2,0 0.5,0.1 0.6,0.2 l 2.1,1.9 c 0,0.1 -3.4,0.2 -3.4,0.2 z"
   id="path64" />
		<path
   class="st5"
   d="m 195.2,388 c -1.8,0 -3.3,1.5 -3.3,3.3 0,1.8 1.5,3.3 3.3,3.3 1.8,0 3.3,-1.5 3.3,-3.3 -0.1,-1.9 -1.5,-3.3 -3.3,-3.3 z m 0,4.2 c -0.5,0 -1,-0.4 -1,-1 0,-0.5 0.4,-1 1,-1 0.5,0 1,0.4 1,1 0,0.6 -0.5,1 -1,1 z"
   id="path66" />
	</g>
	<path
   class="st5"
   d="m 287.6,752.3 h -5.8 v -2.2 h 1.1 c 0.4,0 0.7,-0.3 0.7,-0.7 0,-0.4 -0.3,-0.7 -0.7,-0.7 h -3.7 c -0.4,0 -0.7,0.3 -0.7,0.7 0,0.4 0.3,0.7 0.7,0.7 h 1.1 v 2.2 h -11.6 v -5 h 5.8 c 0.3,0 0.6,-0.2 0.7,-0.4 0.1,-0.3 0.1,-0.6 -0.1,-0.8 l -3.7,-4 h 1.7 c 0.3,0 0.6,-0.2 0.7,-0.4 0.1,-0.3 0.1,-0.6 -0.1,-0.8 l -3.4,-3.7 h 1.7 c 0.3,0 0.6,-0.2 0.7,-0.4 0.1,-0.3 0.1,-0.6 -0.1,-0.8 l -4.7,-5 c -0.3,-0.3 -0.8,-0.3 -1.1,0 l -4.7,5 c -0.2,0.2 -0.2,0.5 -0.1,0.8 0.1,0.3 0.4,0.4 0.7,0.4 h 1.7 l -3.4,3.7 c -0.2,0.2 -0.2,0.5 -0.1,0.8 0.1,0.3 0.4,0.4 0.7,0.4 h 1.7 l -3.7,4 c -0.2,0.2 -0.2,0.5 -0.1,0.8 0.1,0.3 0.4,0.4 0.7,0.4 h 5.8 v 5 h -7.3 c -0.8,0 -1.5,0.7 -1.5,1.5 0,0.8 0.7,1.5 1.5,1.5 h 29.1 c 0.8,0 1.5,-0.7 1.5,-1.5 -0.2,-0.8 -0.9,-1.5 -1.7,-1.5 z"
   id="path70" />
</g>
</svg>
